<?xml version="1.0" standalone="no"?>
<!DOCTYPE svg PUBLIC "-//W3C//DTD SVG 20010904//EN"
 "http://www.w3.org/TR/2001/REC-SVG-20010904/DTD/svg10.dtd">
<svg version="1.0" xmlns="http://www.w3.org/2000/svg"
 width="1024.000000pt" height="1024.000000pt" viewBox="0 0 1024.000000 1024.000000"
 preserveAspectRatio="xMidYMid meet">

<g transform="translate(0.000000,1024.000000) scale(0.100000,-0.100000)"
fill="#ECA400" stroke="none">
<path d="M5525 8873 c-133 -18 -280 -71 -372 -134 -255 -176 -440 -578 -460
-1001 -3 -71 -3 -128 0 -128 25 0 346 69 492 106 277 71 376 106 576 207 230
116 288 132 484 132 138 0 141 0 260 -42 66 -22 142 -44 169 -48 l49 -7 -7 37
c-13 65 -82 222 -137 310 -110 175 -244 291 -404 349 -193 70 -469 34 -640
-84 -166 -114 -298 -290 -372 -495 l-33 -90 6 60 c9 96 51 253 87 330 120 250
347 390 632 387 61 0 137 -7 170 -16 33 -8 61 -13 63 -11 6 5 -92 61 -156 88
-106 45 -282 67 -407 50z"/>
<path d="M6130 7969 c-125 -20 -214 -53 -349 -129 -47 -27 -129 -65 -181 -84
-242 -89 -728 -202 -908 -211 -65 -3 -79 -8 -140 -45 -37 -24 -77 -52 -89 -63
-26 -24 -30 -59 -8 -77 18 -15 108 -2 455 66 418 83 722 173 890 262 241 128
303 147 452 139 75 -4 118 -13 218 -47 l125 -43 118 15 c124 16 141 24 152 69
5 19 0 33 -17 54 -27 31 -37 32 -163 20 -76 -7 -86 -5 -188 29 -156 52 -248
64 -367 45z"/>
<path d="M6098 7704 c-64 -15 -115 -39 -235 -112 -127 -77 -502 -195 -798
-252 -127 -24 -149 -33 -164 -67 -18 -39 -13 -77 19 -145 60 -126 52 -171 -49
-286 -37 -42 -73 -87 -79 -99 -16 -30 -15 -73 2 -79 12 -5 13 -11 2 -42 -18
-51 -29 -146 -21 -182 l7 -30 87 0 c48 0 157 -3 242 -7 l154 -7 -60 -18 c-59
-19 -354 -45 -381 -34 -23 9 -16 -18 14 -60 118 -162 300 -187 547 -78 193 86
226 97 305 98 52 0 85 -5 107 -17 62 -33 67 -26 -132 -211 -139 -129 -389
-335 -493 -406 -60 -40 -65 -42 -90 -29 -48 25 -482 319 -631 428 -162 118
-480 366 -554 433 -45 40 -50 50 -74 138 -13 52 -30 100 -36 106 -7 6 -32 19
-57 29 -25 10 -49 22 -53 26 -7 5 102 282 117 296 1 2 22 -4 46 -12 23 -8 47
-15 52 -15 4 0 24 34 43 75 l34 75 46 0 c26 0 62 -7 81 -16 54 -26 174 -161
227 -257 41 -73 53 -87 74 -87 22 0 24 3 18 31 -4 16 -18 58 -32 92 -100 247
-230 400 -408 482 -55 25 -273 108 -342 130 -7 2 -22 -12 -33 -31 -20 -32 -25
-34 -58 -28 -65 12 -100 31 -104 56 -2 19 -20 30 -101 63 -83 33 -100 37 -108
25 -14 -23 -87 -213 -91 -239 -3 -21 6 -26 96 -57 91 -31 100 -33 111 -17 11
15 17 15 56 4 72 -22 88 -39 89 -94 0 -46 1 -48 45 -69 25 -12 43 -27 41 -33
-3 -5 -32 -74 -64 -152 -33 -78 -63 -146 -66 -152 -4 -5 -22 -4 -48 3 -51 14
-81 11 -100 -12 -24 -27 -178 -397 -178 -426 0 -33 27 -76 47 -76 8 0 13 -6
10 -12 -14 -32 -181 -400 -207 -456 -38 -79 -38 -120 -4 -162 35 -41 76 -61
129 -63 85 -4 98 15 250 367 l90 207 45 -7 c25 -4 76 -10 115 -13 l69 -7 418
-425 418 -424 -148 -37 c-167 -43 -194 -45 -347 -34 -96 7 -115 6 -144 -9 -28
-14 -35 -14 -42 -3 -18 28 -9 94 22 158 18 37 33 88 36 120 4 47 2 59 -18 84
-25 32 -254 186 -276 186 -21 0 -16 -14 43 -137 30 -63 53 -121 50 -128 -4
-13 -87 -55 -157 -80 l-36 -13 -56 119 c-34 74 -61 119 -70 119 -17 0 -32
-117 -32 -258 0 -83 0 -84 36 -116 19 -18 58 -41 85 -50 97 -35 126 -50 150
-79 34 -40 30 -52 -21 -71 -58 -22 -89 -61 -82 -101 7 -38 210 -394 238 -417
26 -22 77 -23 107 -2 22 15 23 14 73 -93 28 -59 74 -160 101 -223 28 -63 63
-141 79 -172 24 -47 27 -62 19 -83 -16 -42 -12 -113 9 -153 66 -128 233 -151
333 -45 75 79 62 202 -30 286 -23 20 -46 37 -52 37 -5 0 -16 15 -24 33 -8 17
-66 138 -129 268 l-114 237 75 78 75 77 86 18 c47 9 264 49 481 89 217 39 438
79 490 90 102 21 124 31 549 250 129 66 237 120 240 120 3 0 21 -49 40 -108
18 -59 58 -163 88 -232 30 -69 71 -162 91 -207 29 -66 43 -85 66 -95 47 -19
196 -120 272 -183 278 -232 494 -515 633 -833 48 -109 51 -121 14 -67 -85 128
-377 433 -558 584 -273 227 -620 433 -883 525 -321 112 -562 29 -618 -213 -54
-227 63 -498 374 -871 184 -220 517 -544 744 -723 42 -34 76 -62 74 -64 -4 -4
-319 25 -460 43 -71 9 -145 14 -163 11 -52 -9 -439 -201 -452 -225 -18 -34
-13 -67 15 -93 l26 -24 916 0 917 0 75 23 c80 25 151 62 242 125 l58 40 62
-12 c473 -91 781 -194 936 -313 310 -239 97 -521 -515 -679 -208 -53 -338 -70
-579 -76 -261 -6 -427 6 -639 48 -262 51 -407 110 -448 181 -19 33 -20 39 -7
63 35 65 181 100 415 99 169 0 299 -16 510 -60 216 -46 268 -43 324 21 59 67
47 160 -28 228 -31 28 -56 39 -132 56 -570 131 -1046 117 -1309 -39 -139 -82
-212 -189 -219 -318 -3 -66 0 -79 28 -137 98 -198 345 -341 741 -429 195 -43
339 -58 605 -63 289 -6 426 6 701 62 559 114 938 340 1064 635 35 82 40 233
12 327 -91 300 -444 521 -1116 699 -94 24 -172 46 -174 49 -3 2 18 62 46 132
138 352 202 687 202 1071 0 431 -80 819 -253 1227 -199 468 -484 815 -925
1130 -198 141 -252 249 -252 505 0 156 -16 242 -59 328 l-30 60 -68 16 c-37 9
-106 27 -152 41 -93 28 -166 31 -253 9z m141 -214 c53 -27 109 -94 126 -154
28 -95 14 -223 -35 -319 -67 -129 -216 -204 -324 -163 -49 19 -89 56 -68 63
64 23 151 117 152 165 0 9 -31 42 -69 72 -89 72 -111 100 -111 145 0 64 78
163 155 197 46 20 129 17 174 -6z m-1018 -350 c26 -14 49 -62 49 -101 0 -72
-81 -139 -167 -139 l-40 0 4 73 c5 81 27 152 51 167 22 13 78 13 103 0z m-859
-3098 c30 -30 34 -82 8 -115 -42 -53 -93 -55 -139 -6 -32 34 -28 84 9 121 27
26 36 30 67 25 20 -4 45 -15 55 -25z"/>
<path d="M2140 4559 l0 -270 165 2 165 2 0 269 0 268 -165 0 -165 0 0 -271z"/>
<path d="M2690 4560 l0 -270 330 0 330 1 0 157 c0 86 3 208 7 270 l6 112 -336
0 -337 0 0 -270z"/>
<path d="M1977 4073 c-4 -3 -7 -123 -7 -266 l0 -259 865 3 865 3 0 263 0 263
-858 0 c-472 0 -862 -3 -865 -7z"/>
<path d="M1482 3115 c-2 -119 -1 -238 3 -265 l7 -50 494 0 494 0 0 265 0 265
-497 0 -498 0 -3 -215z"/>
<path d="M2700 3065 l0 -265 870 0 870 0 0 265 0 265 -870 0 -870 0 0 -265z"/>
<path d="M1410 2315 l0 -265 918 0 917 0 0 265 0 265 -917 0 -918 0 0 -265z"/>
<path d="M3460 2361 c0 -120 3 -239 6 -265 l7 -46 688 0 689 0 0 234 c0 128 3
248 6 265 l7 31 -702 0 -701 0 0 -219z"/>
</g>
</svg>
